<?xml version="1.0" encoding="UTF-8" standalone="no"?>
<svg
   xmlns:dc="http://purl.org/dc/elements/1.1/"
   xmlns:cc="http://creativecommons.org/ns#"
   xmlns:rdf="http://www.w3.org/1999/02/22-rdf-syntax-ns#"
   xmlns:svg="http://www.w3.org/2000/svg"
   xmlns="http://www.w3.org/2000/svg"
   id="svg8"
   version="1.1"
   viewBox="0 0 79.375 84.632904"
   height="84.632904mm"
   width="79.375mm">
  <defs
     id="defs2" />
  <metadata
     id="metadata5">
    <rdf:RDF>
      <cc:Work
         rdf:about="">
        <dc:format>image/svg+xml</dc:format>
        <dc:type
           rdf:resource="http://purl.org/dc/dcmitype/StillImage" />
        <dc:title></dc:title>
      </cc:Work>
    </rdf:RDF>
  </metadata>
  <g
     transform="translate(200.70536,-22.456992)"
     id="layer1">
    <path
       id="path4496"
       d="m -179.93557,103.94866 c -2.1288,-2.27239 -3.08916,-3.11589 -3.57601,-3.14086 -0.47517,-0.0244 -1.57158,-0.942485 -3.83232,-3.209135 -1.96767,-1.97281 -3.36996,-3.175 -3.70345,-3.175 -0.3385,0 -1.95114,-1.41695 -4.36634,-3.83646 -2.56379,-2.56837 -4.01816,-3.83646 -4.40004,-3.83646 -0.65397,0 -0.89163,-0.4606 -0.89163,-1.72802 0,-1.29479 1.34171,-2.50243 2.7821,-2.50409 1.00843,-0.001 1.22981,0.16701 4.36562,3.3163 2.15549,2.16476 3.45374,3.27934 3.73621,3.20765 0.28402,-0.0721 1.73868,1.19825 4.22991,3.69393 2.41226,2.41658 3.99428,3.80381 4.3379,3.80381 0.31071,0 1.21286,0.67988 2.12008,1.59775 1.21566,1.22992 1.7315,1.58017 2.24068,1.52136 0.49044,-0.0566 0.6821,-0.25409 0.74129,-0.76367 0.0439,-0.37799 0.54992,-1.1463 1.12448,-1.70734 0.60653,-0.59227 1.04465,-1.27049 1.04465,-1.61717 0,-0.35702 0.42552,-0.99081 1.05833,-1.57631 0.67168,-0.62146 1.05833,-1.21241 1.05833,-1.61752 0,-0.40851 0.37588,-0.97574 1.04403,-1.57556 0.60261,-0.54097 1.11994,-1.28787 1.22359,-1.76657 0.10025,-0.46299 0.63253,-1.24968 1.20494,-1.78089 0.65297,-0.60596 1.02536,-1.18703 1.02536,-1.59995 0,-0.40784 0.39265,-1.03181 1.05833,-1.68184 0.58209,-0.56839 1.05834,-1.28276 1.05834,-1.5875 0,-0.30473 0.47625,-1.01911 1.05833,-1.5875 0.58209,-0.56839 1.05834,-1.28276 1.05834,-1.5875 0,-0.30473 0.47625,-1.01911 1.05833,-1.5875 0.58208,-0.56839 1.05833,-1.28276 1.05833,-1.5875 0,-0.30473 0.47625,-1.01911 1.05834,-1.5875 0.58208,-0.56839 1.05833,-1.28276 1.05833,-1.5875 0,-0.30473 0.47625,-1.01911 1.05833,-1.5875 0.58209,-0.56839 1.05834,-1.28276 1.05834,-1.587497 0,-0.304736 0.47625,-1.019111 1.05833,-1.5875 0.58208,-0.568388 1.05833,-1.282763 1.05833,-1.5875 0,-0.304736 0.47625,-1.019111 1.05834,-1.5875 0.58208,-0.568389 1.05833,-1.282764 1.05833,-1.5875 0,-0.304737 0.47625,-1.019112 1.05833,-1.5875 0.58209,-0.568389 1.05834,-1.282764 1.05834,-1.5875 0,-0.304737 0.47625,-1.019112 1.05833,-1.5875 0.58208,-0.568389 1.05833,-1.243423 1.05833,-1.500074 0,-0.256651 0.53578,-1.069898 1.19063,-1.807218 0.65484,-0.73732 1.19062,-1.531649 1.19062,-1.765181 0,-0.233529 0.47625,-0.941271 1.05834,-1.572757 0.58208,-0.631484 1.05833,-1.388941 1.05833,-1.683235 0,-0.294293 0.23812,-0.773202 0.52917,-1.064244 0.29104,-0.291041 0.52916,-0.753284 0.52916,-1.027206 0,-0.273921 0.47625,-0.974289 1.05834,-1.556372 0.58208,-0.582084 1.05833,-1.315235 1.05833,-1.629226 0,-0.321857 0.46167,-1.010065 1.05833,-1.57766 0.6992,-0.665129 1.05834,-1.237586 1.05834,-1.686961 0,-0.477467 0.31542,-0.930016 1.05833,-1.518408 0.76815,-0.608388 1.05833,-1.034808 1.05833,-1.555214 0,-0.492963 0.33069,-1.030358 1.05834,-1.719872 0.6137,-0.581545 1.05833,-1.248833 1.05833,-1.588322 0,-0.334396 0.45384,-1.028608 1.05833,-1.618884 0.58209,-0.568389 1.05834,-1.282764 1.05834,-1.5875 0,-0.304736 0.47625,-1.019111 1.05833,-1.5875 0.58208,-0.568389 1.05833,-1.282764 1.05833,-1.5875 0,-0.304736 0.47625,-1.019111 1.05834,-1.5875 0.58208,-0.56839 1.05833,-1.281229 1.05833,-1.584089 0,-0.713881 2.62039,-3.310703 3.34075,-3.310703 0.30029,0 0.76148,0.238125 1.02487,0.529167 0.26339,0.291041 0.69006,0.529166 0.94815,0.529166 0.56887,0 1.30081,0.686327 1.30081,1.219747 0,0.213509 -0.47625,0.883833 -1.05833,1.489609 -0.58208,0.605775 -1.05833,1.31821 -1.05833,1.583188 0,0.264979 -0.46746,0.988913 -1.0388,1.608742 -0.57134,0.61983 -1.11619,1.435295 -1.21077,1.812144 -0.0946,0.37685 -0.63915,1.141376 -1.21016,1.698948 -0.57101,0.557571 -1.03819,1.263095 -1.03819,1.567831 0,0.304736 -0.47625,1.019111 -1.05833,1.5875 -0.58209,0.568389 -1.05834,1.282764 -1.05834,1.5875 0,0.304736 -0.47625,1.019111 -1.05833,1.5875 -0.58208,0.568389 -1.05833,1.282764 -1.05833,1.5875 0,0.304736 -0.47625,1.019111 -1.05834,1.5875 -0.58208,0.568389 -1.05833,1.282764 -1.05833,1.5875 0,0.304736 -0.47625,1.019111 -1.05833,1.5875 -0.58209,0.56839 -1.05834,1.282765 -1.05834,1.5875 0,0.304736 -0.47625,1.019111 -1.05833,1.5875 -0.58208,0.568389 -1.05833,1.282764 -1.05833,1.5875 0,0.304737 -0.47625,1.019112 -1.05834,1.5875 -0.58208,0.568389 -1.05833,1.282764 -1.05833,1.5875 0,0.304737 -0.47625,1.019112 -1.05833,1.5875 -0.58209,0.568389 -1.05834,1.282764 -1.05834,1.5875 0,0.304737 -0.47625,1.019112 -1.05833,1.587501 -0.58371,0.569976 -1.05833,1.287602 -1.05833,1.600189 0,0.311716 -0.23813,0.782254 -0.52917,1.045644 -0.29104,0.26339 -0.52917,0.733928 -0.52917,1.045644 0,0.312587 -0.47462,1.030213 -1.05833,1.600189 -0.61679,0.602282 -1.05833,1.282547 -1.05833,1.630532 0,0.355627 -0.42207,0.98761 -1.04367,1.562733 -0.58984,0.54574 -1.1219,1.326972 -1.2236,1.796602 -0.10062,0.46472 -0.63185,1.250357 -1.20529,1.782507 -0.6374,0.59152 -1.02536,1.18998 -1.02536,1.58172 0,0.39756 -0.39064,0.98724 -1.05833,1.59757 -0.67495,0.61696 -1.05834,1.19865 -1.05834,1.60574 0,0.39609 -0.40163,1.03051 -1.05833,1.67176 -0.58208,0.56839 -1.05833,1.28277 -1.05833,1.5875 0,0.30474 -0.47625,1.01911 -1.05834,1.5875 -0.58208,0.56839 -1.05833,1.28277 -1.05833,1.5875 0,0.30474 -0.47625,1.01911 -1.05833,1.5875 -0.58209,0.56839 -1.05834,1.28277 -1.05834,1.5875 0,0.30474 -0.47625,1.01911 -1.05833,1.5875 -0.58208,0.56839 -1.05833,1.28277 -1.05833,1.5875 0,0.30474 -0.47625,1.01912 -1.05834,1.5875 -0.58208,0.56839 -1.05833,1.28277 -1.05833,1.5875 0,0.30474 -0.47625,1.01912 -1.05834,1.5875 -0.58208,0.56839 -1.05833,1.28277 -1.05833,1.5875 0,0.30474 -0.47625,1.01912 -1.05833,1.5875 -0.58209,0.56839 -1.05834,1.28277 -1.05834,1.5875 0,0.30474 -0.46718,1.01026 -1.03819,1.56783 -0.571,0.55758 -1.11558,1.322095 -1.21016,1.698945 -0.0946,0.37685 -0.63943,1.19232 -1.21076,1.81215 -0.57135,0.61983 -1.0388,1.31588 -1.0388,1.54679 0,0.58762 -2.16361,3.03863 -2.64584,2.9973 -0.21828,-0.0187 -1.70656,-1.43203 -3.30729,-3.14072 z"
       style="fill:#8d8d8d;stroke-width:0.26458335" />
  </g>
</svg>
