<svg width="19" height="21" viewBox="0 0 19 21" fill="none" xmlns="http://www.w3.org/2000/svg">
<path fill-rule="evenodd" clip-rule="evenodd" d="M13.5167 20.7H1.60333C0.718931 20.7 0 20.0141 0 19.1717V4.38345C0 3.54106 0.718931 2.85517 1.60333 2.85517H3.11943C3.29644 2.85517 3.44009 2.99211 3.44009 3.16083C3.44009 3.32955 3.29644 3.46648 3.11943 3.46648H1.60333C1.07295 3.46648 0.64133 3.8779 0.64133 4.38345V19.1711C0.64133 19.6767 1.07295 20.0881 1.60333 20.0881H13.5167C14.0471 20.0881 14.4787 19.6767 14.4787 19.1711V17.7254C14.4787 17.5566 14.6223 17.4197 14.7993 17.4197C14.9763 17.4197 15.12 17.5566 15.12 17.7254V19.1711C15.12 20.0141 14.4011 20.7 13.5167 20.7Z" fill="black"/>
<path fill-rule="evenodd" clip-rule="evenodd" d="M16.1404 17.363H4.37062C3.49689 17.363 2.78662 16.6956 2.78662 15.8759V1.48707C2.78662 0.667397 3.49689 0 4.37062 0H12.9901C13.165 0 13.3069 0.133241 13.3069 0.297414C13.3069 0.461586 13.1656 0.594828 12.9907 0.594828H4.37062C3.84663 0.594828 3.42022 0.995147 3.42022 1.48707V15.8759C3.42022 16.3679 3.84663 16.7682 4.37062 16.7682H16.1404C16.6644 16.7682 17.0908 16.3679 17.0908 15.8759V4.55697C17.0908 4.3928 17.2327 4.25956 17.4076 4.25956C17.5824 4.25956 17.7244 4.3928 17.7244 4.55697V15.8759C17.7244 16.6962 17.0141 17.363 16.1404 17.363Z" fill="black"/>
<path fill-rule="evenodd" clip-rule="evenodd" d="M17.4076 4.85438H12.9901C12.8153 4.85438 12.6733 4.72114 12.6733 4.55697V0.409238C12.6733 0.245065 12.8153 0.111824 12.9901 0.111824C13.165 0.111824 13.3069 0.245065 13.3069 0.409238V4.25956H17.4076C17.5825 4.25956 17.7244 4.3928 17.7244 4.55697C17.7244 4.72114 17.5831 4.85438 17.4076 4.85438Z" fill="black"/>
<path fill-rule="evenodd" clip-rule="evenodd" d="M17.4074 4.85439C17.325 4.85439 17.2427 4.82405 17.1806 4.76457L12.7631 0.505007C12.6415 0.387231 12.644 0.199265 12.7694 0.0844636C12.8943 -0.0291485 13.0964 -0.0267692 13.2174 0.0904118L17.6349 4.34997C17.7565 4.46775 17.754 4.65571 17.6285 4.77052C17.5671 4.82643 17.4872 4.85439 17.4074 4.85439Z" fill="black"/>
</svg>
