<svg width="14" height="15" viewBox="0 0 14 15" fill="none" xmlns="http://www.w3.org/2000/svg">
<g opacity="0.8">
<path fill-rule="evenodd" clip-rule="evenodd" d="M3.44656 15C2.98113 15 2.59841 14.6907 2.57894 14.2988L2 4H13L12.4211 14.2988C12.4016 14.6907 12.0189 15 11.5534 15H3.44656ZM9.6866 6.26084C9.49177 6.26084 9.33387 6.39393 9.33387 6.55803V12.442C9.33387 12.6062 9.49186 12.7392 9.6866 12.7392H10.2507C10.4456 12.7392 10.6035 12.6061 10.6035 12.442V6.55803C10.6035 6.3939 10.4454 6.26084 10.2507 6.26084H9.6866ZM6.86524 6.55803C6.86524 6.39393 7.02314 6.26084 7.21792 6.26084H7.78208C7.97677 6.26084 8.13476 6.3939 8.13476 6.55803V12.442C8.13476 12.6061 7.9769 12.7392 7.78208 12.7392H7.21792C7.02318 12.7392 6.86524 12.6062 6.86524 12.442V6.55803ZM4.74921 6.26084C4.55443 6.26084 4.39652 6.39393 4.39652 6.55803V12.442C4.39652 12.6062 4.55447 12.7392 4.74921 12.7392H5.3134C5.50819 12.7392 5.66609 12.6061 5.66609 12.442V6.55803C5.66609 6.3939 5.50814 6.26084 5.3134 6.26084H4.74921Z" fill="#979797"/>
<path fill-rule="evenodd" clip-rule="evenodd" d="M13.4068 0.84771H9.33557V0.173426C9.33557 0.0776689 9.24696 0 9.13761 0H4.86239C4.75309 0 4.66447 0.0776689 4.66447 0.173426V0.84767H0.593199C0.26556 0.84767 0 1.08035 0 1.36738V3H14V1.36742C14 1.08039 13.7344 0.84771 13.4068 0.84771Z" fill="#979797"/>
</g>
</svg>
