<svg width="35" height="22" viewBox="0 0 35 22" fill="none" xmlns="http://www.w3.org/2000/svg">
<path fill-rule="evenodd" clip-rule="evenodd" d="M30.6 8.4V4H28.4V8.4H24V10.6H28.4V15H30.6V10.6H35V8.4H30.6Z" fill="#FF6639"/>
<path fill-rule="evenodd" clip-rule="evenodd" d="M11 8.8V13.2H17.2238C16.3152 15.7608 13.8688 17.6 11 17.6C7.3612 17.6 4.4 14.6388 4.4 11C4.4 7.3612 7.3612 4.4 11 4.4C12.5774 4.4 14.0954 4.9654 15.2746 5.9928L18.1654 2.6752C16.1854 0.9504 13.6422 0 11 0C4.9346 0 0 4.9346 0 11C0 17.0654 4.9346 22 11 22C17.0654 22 22 17.0654 22 11V8.8H11Z" fill="#FF6639"/>
</svg>
