<svg width="16" height="9" viewBox="0 0 16 9" fill="none" xmlns="http://www.w3.org/2000/svg">
<path fill-rule="evenodd" clip-rule="evenodd" d="M15.3439 3.95297C15.2074 3.79133 11.9442 0 7.77281 0C3.60121 0 0.338221 3.79133 0.201362 3.95313C-0.0671469 4.27006 -0.0671469 4.72994 0.20152 5.04719C0.338221 5.20883 3.60121 9 7.77281 9C11.9442 9 15.2074 5.20851 15.3441 5.04687C15.6126 4.72994 15.6126 4.27006 15.3439 3.95297ZM9.047 2.27749C9.32751 2.12378 9.71867 2.30015 9.92056 2.67129C10.1225 3.04257 10.0587 3.46822 9.77818 3.62193C9.49783 3.7758 9.10651 3.59927 8.90446 3.22814C8.70272 2.85685 8.76634 2.43121 9.047 2.27749ZM1.5578 4.5C2.40658 5.37981 4.85883 7.6264 7.77281 7.6264C10.6866 7.6264 13.1389 5.38029 13.9877 4.5C13.4145 3.90575 12.1097 2.68903 10.4255 1.96119C10.754 2.4629 10.9465 3.06238 10.9465 3.70766C10.9465 5.46729 9.52545 6.89365 7.77265 6.89365C6.01984 6.89365 4.599 5.46729 4.599 3.70766C4.599 3.06238 4.79158 2.4629 5.12008 1.96119C3.43594 2.68888 2.13096 3.90575 1.5578 4.5Z" fill="#A9A9A9"/>
</svg>
