
<svg width="313px" height="543px" viewBox="0 0 313 543" version="1.1" xmlns="http://www.w3.org/2000/svg" xmlns:xlink="http://www.w3.org/1999/xlink">
  <g id="Page-1" stroke="none" stroke-width="1" fill="none" fill-rule="evenodd">
    <g id="robo" transform="translate(-378.000000, -153.000000)">
      <g id="robotisolated" transform="translate(534.500000, 424.000000) scale(-1, 1) translate(-534.500000, -424.000000) translate(378.000000, 153.000000)">
        <path d="M174.433217,540.894236 L216.515521,540.931093 L217.726397,540.278885 L173.463564,540.245233 L174.433217,540.894236 Z M120.167565,541 L162.894188,540.963143 L163.87495,540.31414 L118.939232,540.349394 L120.167565,541 Z M306.277454,513.528728 C302.555955,513.068817 298.040959,512.900556 293.735445,513.003115 L263.98408,504.952268 C266.001149,503.830533 263.571462,502.535732 257.390123,501.721673 C257.399645,501.715263 257.412341,501.710456 257.421863,501.704046 C257.055267,501.651164 256.67915,501.59668 256.282401,501.547003 C252.854496,501.122346 248.756879,500.949279 244.767177,501.002161 C241.453535,501.01498 238.241461,501.175228 235.511832,501.471687 L229.033725,500.588721 L173.369932,500.819478 L174.374498,499.688129 L174.523676,499.518266 L174.61096,499.42372 L176.994625,496.736365 L177.142215,496.568105 L177.291392,496.399845 L177.319958,496.369398 L179.673469,493.7189 L179.824234,493.549038 L179.925801,493.435262 L179.973411,493.380777 L181.633406,491.512289 L277.198974,488.486811 C278.81136,485.416464 278.506657,482.621743 277.130734,480.141108 L286.590801,479.894327 C287.257338,479.878302 287.869918,479.839842 288.452344,479.794973 C288.685633,479.802985 288.918921,479.807793 289.145861,479.802985 C290.220255,479.774141 291.06771,479.589856 291.645375,479.298205 C292.319847,479.089883 292.622963,478.847909 292.411893,478.59632 C292.621376,478.160446 292.496004,477.633231 291.969122,477.075569 C291.435892,476.513099 290.574155,476.005114 289.552131,475.594879 L289.529913,475.570842 C289.239493,475.269576 288.252383,475.014782 286.89233,474.840112 C286.002027,474.679865 285.09744,474.598138 284.235703,474.620573 C284.18968,474.623778 284.146831,474.626983 284.099222,474.626983 C283.280333,474.598138 282.415422,474.590126 281.53464,474.614163 L272.234859,474.854535 C266.266177,470.340355 258.04079,467.769981 258.04079,467.769981 L29.8660542,475.463476 L29.7787695,475.392967 L29.1376242,475.325663 L256.091962,467.70428 L243.79435,466.226796 L151.834431,469.313167 L151.264701,468.630512 C151.220265,468.576028 151.088544,468.531158 150.90604,468.487891 C151.025065,468.459047 151.088544,468.431805 151.067914,468.406165 C150.920323,468.218675 147.098843,468.177011 142.450539,468.298799 C142.571151,467.49115 142.510845,464.733287 137.027783,462.002665 C139.778043,461.946578 141.863352,461.690182 141.863352,461.377699 C141.863352,461.227066 141.349166,461.089253 140.527103,460.980284 C140.030374,460.892148 139.254335,460.828049 138.327531,460.797602 C137.597514,460.762347 136.794495,460.741515 135.94704,460.741515 C132.679421,460.741515 130.029142,461.026756 130.029142,461.377699 C130.029142,461.693387 132.184279,461.95459 134.998018,462.004267 C140.7715,464.807 140.641367,467.66582 140.511233,468.359693 C136.419965,468.507121 133.393568,468.73948 133.53005,468.909343 C133.539571,468.922163 133.606225,468.931778 133.644313,468.941393 C133.436417,469.011902 133.333262,469.082411 133.395155,469.157727 L134.026778,469.912494 L16.5797455,473.856191 L26.547651,475.054844 L14.5531549,473.795297 L16.22902,474.431481 C17.2256518,475.359315 20.7376682,478.55145 25.5399102,482.088118 L8.14646261,482.756351 C7.07524207,482.796413 6.13732897,482.881345 5.3390713,482.987108 C5.14387111,482.985506 4.9534319,482.985506 4.76775367,482.991916 C1.88894766,483.100884 1.13671279,484.331587 3.07601872,485.74337 C5.02167262,487.156755 8.92885035,488.21439 11.8076564,488.107024 C12.1202941,488.095807 12.4043659,488.065359 12.6662198,488.030105 C13.5581101,488.065359 14.4976102,488.070167 15.4434582,488.030105 L31.4197207,487.353859 L33.3415697,487.276941 C37.4090338,489.685464 41.8177014,491.794325 46.1438454,492.933686 L59.7808796,494.8182 C59.7808796,494.8182 58.8493145,494.380723 57.3019959,493.624354 C58.7842478,494.226886 60.3030004,494.79256 61.851906,495.302148 L141.303143,492.787861 L141.593563,493.340716 L141.615781,493.38238 L141.712587,493.56346 L141.807807,493.74454 L143.13136,496.258827 L143.142469,496.278057 L143.23134,496.451124 L143.329734,496.638614 L144.750093,499.332379 L144.81516,499.452565 L144.908792,499.633645 L145.005599,499.814725 L145.597547,500.938062 L145.05797,500.939664 L143.956596,500.787429 L131.576461,500.845118 L133.845861,500.986136 L103.624746,501.114334 L82.982723,503.505231 C80.1864406,503.170313 76.8172537,502.976413 73.1893868,502.976413 C68.3490569,502.976413 63.9689552,503.324151 60.8029034,503.883415 C57.4448253,504.396208 55.3404721,505.12213 55.3404721,505.924972 C55.3404721,506.24066 55.6673927,506.543528 56.2625153,506.825564 C56.7243303,507.14606 57.4654563,507.447325 58.4462182,507.721349 L36.0299365,517.006104 C30.1659959,517.376276 25.9620504,518.3618 25.9620504,519.525199 C25.9620504,519.661409 26.0366391,519.792812 26.1477287,519.92101 C26.1683596,519.94665 26.1842295,519.969085 26.2064474,519.991519 C26.3365809,520.119718 26.5159111,520.247916 26.7460252,520.369704 C26.7587211,520.374512 26.774591,520.382524 26.787287,520.390536 C28.0235548,521.028322 30.5722662,521.55714 33.8779735,521.877636 L46.3279366,529.144871 L45.8121638,529.156089 C41.7288298,529.23461 38.3929697,529.529466 37.1471799,529.882011 C36.6012541,529.955725 36.2949644,530.032644 36.3489222,530.106358 L37.2804873,531.404365 C37.3042922,531.438017 37.3979248,531.466861 37.5391672,531.497308 L38.3263159,532.5918 C38.6516496,533.043699 42.638177,533.34176 47.4864418,533.304903 C47.5197687,533.336952 47.5483345,533.369002 47.5959443,533.401052 L50.3430299,535.349664 C50.9175215,535.756693 52.2601179,536.054754 53.3440344,536.011487 L56.562457,535.888097 C56.6751335,535.899314 56.7846361,535.907326 56.8846167,535.902519 L59.9744928,535.783936 C60.6235731,535.758296 60.6807049,535.405751 60.1046263,535.000324 L57.4559343,533.120618 L71.1485133,532.853004 L70.975531,534.707071 C70.9326822,535.125317 71.5039998,535.465043 72.2467127,535.466645 L72.4546088,535.466645 C72.7228107,535.521129 73.0275135,535.556384 73.3576081,535.557986 L78.66134,535.572409 C79.7706484,535.572409 80.7038005,535.235888 80.7418883,534.819244 L80.9307405,532.819352 C80.9418495,532.689551 80.8577389,532.569366 80.7164964,532.462 C82.8160887,532.256883 84.0825094,531.981256 83.8809613,531.702425 L82.1924003,529.348386 C81.8400878,528.854823 77.1568703,528.54234 71.7341138,528.649706 L68.3046211,528.715407 L54.6310861,520.731864 C55.6721537,520.368102 56.2736242,519.961072 56.2736242,519.525199 C56.2736242,519.305659 56.1085769,519.095735 55.8308531,518.89222 L79.9134778,508.915195 C80.6641257,508.857506 81.3782727,508.791804 82.0717888,508.719692 L106.051259,528.454203 C106.051259,528.454203 109.802911,528.460613 115.43039,528.465421 C118.048929,528.470228 121.086434,528.473433 124.328662,528.476638 L125.158659,530.050271 L125.180877,530.08873 L125.277684,530.274618 L125.37449,530.452493 L126.696456,532.968383 C126.764697,532.974792 126.83135,532.9796 126.902765,532.98601 L126.707565,532.98601 L126.707565,532.987612 L126.796437,533.159077 L126.89483,533.346567 L128.315189,536.03873 L128.380256,536.16212 L128.475476,536.341598 L128.570695,536.522678 L129.059489,537.452115 L128.427866,537.45532 L119.355025,540.062551 L163.752752,540.062551 L156.728719,537.762995 L157.939595,536.399287 L158.091946,536.227822 L158.176057,536.133276 L158.242711,536.054754 L160.558134,533.447523 L160.858076,533.109401 L160.883468,533.078954 L163.240153,530.425251 L163.392504,530.256991 L163.489311,530.14642 L163.540095,530.08873 L165.023933,528.417346 C168.650213,528.404527 172.27808,528.388502 175.910708,528.374079 L176.140822,528.398117 L177.031125,530.08873 L177.051756,530.128792 L177.151737,530.313077 L177.246957,530.494157 L178.570509,533.008445 C178.63875,533.014854 178.70699,533.021264 178.779992,533.027674 L178.581618,533.027674 L178.672077,533.199139 L178.77047,533.385027 L180.189242,536.078791 L180.254309,536.20058 L180.347942,536.383262 L180.444748,536.564342 L180.958934,537.541853 L173.585763,539.995247 L217.316953,539.993644 L208.847169,537.522624 L209.810474,536.437746 L209.964412,536.266281 L210.048523,536.171735 L210.116764,536.096419 L212.432187,533.48438 L212.730542,533.14786 L212.760695,533.119015 L215.112619,530.465313 L215.263383,530.297053 L215.363364,530.183277 L215.414148,530.128792 L217.310605,527.987882 C217.8724,527.97987 218.431022,527.975063 218.991231,527.96705 C224.6076,527.904554 228.354492,527.862889 228.354492,527.862889 L245.949487,507.131637 L278.866904,516.035002 C279.044648,516.480491 279.855601,516.909955 281.253742,517.29455 L268.897412,524.890293 L266.888278,524.794145 C261.638504,524.548966 256.714064,524.731648 255.882479,525.210789 L251.930866,527.489512 C251.354787,527.821225 252.948128,528.205819 255.725367,528.492663 C255.193724,528.632078 255.195311,528.923729 255.82376,529.23461 L259.653175,531.130341 C260.451433,531.527755 261.955903,531.803381 263.008079,531.74409 L268.045196,531.468464 C268.299115,531.454041 268.499077,531.421992 268.651428,531.377122 L268.875194,531.364303 C269.413185,531.333855 269.202115,530.989323 268.40227,530.591908 L265.291763,529.051927 L281.361658,529.811502 L273.698067,530.604728 C271.549278,530.829075 269.992437,531.058229 270.225725,531.119123 L270.617713,531.223285 C270.505036,531.285781 270.50821,531.341868 270.676431,531.386737 L273.504454,532.125479 C274.097989,532.28092 276.318193,532.226435 278.462221,532.003691 L288.726894,530.939646 C290.878857,530.715299 292.137343,530.410828 291.548569,530.253786 L290.880444,530.079116 C293.533897,530.035849 295.535096,529.854769 296.034999,529.569528 L299.988199,527.290805 C300.81661,526.813266 297.231592,526.22676 291.983405,525.979978 L290.429738,525.904662 L302.668631,518.379427 C305.280822,518.188732 307.651791,517.890671 309.499051,517.485245 C315.218575,516.228902 313.780759,514.458165 306.277454,513.528728 Z M35.8490193,481.881399 L37.5582111,482.5288 C39.023006,483.581627 40.6433263,484.692144 42.398541,485.817083 C40.1323144,484.530294 37.8930667,483.198635 35.8490193,481.881399 Z M162.841817,503.663876 L125.468123,503.747205 L219.137234,503.244027 L162.841817,503.663876 Z M173.152514,452 L154.414883,457.558995 L180.646296,453.23551 L173.152514,452 Z M82.1971613,455.049515 L76.2887849,456.498154 L112.991181,458.457984 L82.1971613,455.049515 Z M185.158119,464.888727 L190.385675,463.606745 L157.953878,461.874467 L185.158119,464.888727 Z M97.7608055,467.611336 L117.73153,463.057095 L91.9714536,466.396658 L97.7608055,467.611336 L97.7608055,467.611336 Z" id="Fill-2" fill="#D6D6D6"></path>
        <polyline id="Fill-3" fill="#008783" points="287.134797 455 305 388.645073 283.86838 383 266 449.353344 287.134797 455"></polyline>
        <polyline id="Fill-4" fill="#00726F" points="279.064719 454 297 387.486043 283.936876 384 266 450.513957 279.064719 454"></polyline>
        <path d="M258.071555,467.105511 C252.861848,465.600175 249.297229,462.010036 250.117407,459.106318 L254.046374,445.197525 C254.872861,442.287422 259.767115,441.162011 264.984708,442.667347 L289.926003,449.893918 C295.142019,451.397657 298.705062,454.984603 297.881729,457.894706 L293.952761,471.798711 C293.131006,474.707218 288.236752,475.842206 283.016004,474.330485 L258.071555,467.105511" id="Fill-5" fill="#7ACCC8"></path>
        <path d="M262.153614,459.157413 C257.202673,457.716147 253.564204,455.179323 254.042192,453.48973 L256.31224,445.410198 C256.78863,443.720605 261.196038,443.522593 266.153373,444.960614 L289.84659,451.84396 C294.802326,453.28198 298.434402,455.820427 297.958011,457.511643 L295.684767,465.589552 C295.208377,467.275899 290.807363,467.480403 285.846831,466.039136 L262.153614,459.157413" id="Fill-6" fill="#91D8D3"></path>
        <path d="M276.870035,486.714714 C274.742326,488.072508 272.540597,488.407569 271.951579,487.464612 L269.145082,482.95246 C268.556064,482.009503 269.81442,480.14114 271.943704,478.784942 L282.130248,472.286357 C284.264257,470.928563 286.464412,470.591907 287.05343,471.534864 L289.856777,476.050207 C290.439495,476.989973 289.192163,478.85674 287.058155,480.217726 L276.870035,486.714714" id="Fill-7" fill="#009B97"></path>
        <path d="M273.664637,482.173435 C271.430482,483.490827 269.419577,484.271332 269.181443,483.912889 L268.02385,482.196711 C267.782409,481.835165 269.401386,480.474325 271.642156,479.147623 L282.333357,472.83221 C284.574127,471.508611 286.583378,470.729658 286.824819,471.086549 L287.975798,472.805831 C288.218892,473.17048 286.603223,474.529768 284.36576,475.853367 L273.664637,482.173435" id="Fill-8" fill="#008783"></path>
        <path d="M266.502611,478.285115 C267.317912,480.693308 267.109611,482.92688 266.033936,483.279298 L260.86874,484.95408 C259.789809,485.301736 258.247085,483.638067 257.42853,481.226698 L253.501744,469.717534 C252.679935,467.306165 252.889862,465.069419 253.968793,464.72335 L259.125852,463.046981 C260.208037,462.694562 261.749134,464.362994 262.567689,466.771188 L266.502611,478.285115" id="Fill-9" fill="#009B97"></path>
        <path d="M266.221241,478.473101 C267.028407,480.867607 267.24301,482.951158 266.700095,483.13268 L264.096025,483.988199 C263.549907,484.163406 262.449664,482.367133 261.645701,479.971049 L257.782837,468.525722 C256.970867,466.131217 256.754662,464.04293 257.303983,463.866144 L259.90485,463.012204 C260.450968,462.833839 261.544806,464.631691 262.351971,467.026197 L266.221241,478.473101" id="Fill-10" fill="#008783"></path>
        <polygon id="Fill-11" fill="#ADE0DD" points="207.012229 520.254228 216 535.993681 172 536 180.513554 519"></polygon>
        <polygon id="Stroke-12" stroke="#ADE0DD" points="207.012229 520.254228 216 535.993681 172 536 180.513554 519"></polygon>
        <polygon id="Fill-13" fill="#7ACCC8" points="216 538.207475 214.770527 542 171.98261 541.787948 171 538"></polygon>
        <polygon id="Stroke-14" stroke="#7ACCC8" points="216 538.207475 214.770527 542 171.98261 541.787948 171 538"></polygon>
        <polygon id="Fill-15" fill="#ADE0DD" points="127.193981 520.252881 118 535.99526 163 536 154.291775 519"></polygon>
        <polygon id="Stroke-16" stroke="#ADE0DD" points="127.193981 520.252881 118 535.99526 163 536 154.291775 519"></polygon>
        <polygon id="Fill-17" fill="#7ACCC8" points="118 538.210286 119.231592 542 162.017904 541.785143 163 538"></polygon>
        <polygon id="Stroke-18" stroke="#7ACCC8" points="118 538.210286 119.231592 542 162.017904 541.785143 163 538"></polygon>
        <path d="M153.99992,526.251212 C154.02489,527.622619 148.224087,528.85058 141.046824,528.987721 C133.866439,529.123285 128.026621,528.120739 128.000091,526.754061 C127.97356,525.376349 133.772802,524.146812 140.951626,524.012824 C148.13045,523.874107 153.97495,524.876652 153.99992,526.251212" id="Fill-19" fill="#008783"></path>
        <path d="M121,464.32782 L121.905553,464.909383 L122.814346,475.043628 L122.835405,475.285031 C126.932263,477.084585 138.082392,480.205587 160.492804,475.60011 C160.98689,475.496651 161.485835,475.39476 161.9945,475.285031 L164,462 L121,464.32782" id="Fill-20" fill="#008783"></path>
        <path d="M123,477.165948 L124.328192,492.805778 C124.399858,492.846452 124.468337,492.883871 124.546373,492.927799 C127.747412,494.6849 137.673819,498.43501 158.609572,493.685956 L158.635053,493.493976 L161,477 C139.503667,481.79949 128.062738,479.246812 123,477.165948" id="Fill-21" fill="#008783"></path>
        <path d="M127,515.728196 L128.006106,527 L154.277709,526.436334 L156,515 C140.461767,519.163514 131.508673,517.551733 127,515.728196" id="Fill-22" fill="#008783"></path>
        <path d="M125,495 L126.432962,511.914418 L126.49868,512.674968 C130.21733,514.539381 138.826325,516.903161 155.045729,512.472921 C155.576278,512.33001 156.114841,512.1756 156.659815,512.01462 L159,495.632422 C139.417782,499.972317 129.250801,497.061532 125,495" id="Fill-23" fill="#008783"></path>
        <path d="M137.823278,526.685542 C137.758585,525.792384 137.686003,524.912148 137.624466,524.007684 C137.466679,521.707762 137.327826,519.357772 137.20633,516.972249 C137.173195,516.322974 137.144793,515.665623 137.113236,515.014732 C136.862354,509.589565 136.714034,503.954434 136.673009,498.091572 C136.669853,497.426145 136.66512,496.760718 136.660386,496.090446 C136.650919,490.902702 136.729813,485.54214 136.906534,480.008761 C136.925469,479.346564 136.949137,478.681137 136.972805,478.010865 C137.146371,473.139683 137.390941,468.142522 137.720717,463 L121,463.960993 L121.882031,464.5602 L122.767217,475.000294 L122.78773,475.250636 L122.885558,476.381216 L124.296176,493.020116 C124.36718,493.058878 124.435029,493.100871 124.512345,493.144479 L124.307221,493.142864 L125.905606,511.988009 L125.970299,512.735807 L126.064971,513.856695 L126.161221,514.977584 L127.174216,526.927809 L127.309913,526.922964 C127.840078,528.058389 132.267589,528.898248 138,529 C137.938463,528.236051 137.884815,527.454336 137.823278,526.685542" id="Fill-24" fill="#00726F"></path>
        <path d="M159.542754,476.270722 C137.795681,480.227843 126.975593,477.546213 123,476 L123.191784,477.872157 C128.189178,479.594811 139.482439,481.708059 160.70132,477.734776 L160.85066,476.867388 L160.949696,476.286885 L161,476 C160.506391,476.094281 160.022215,476.181828 159.542754,476.270722" id="Fill-25" fill="#009B97"></path>
        <path d="M125.2054,493.003198 L125,493 L125.09006,494.053621 L125.18802,495.193579 C129.378177,497.200096 139.400112,500.033203 158.70296,495.809124 L158.85148,494.777886 L159,493.748247 C138.229332,498.415199 128.381198,494.729922 125.2054,493.003198" id="Fill-26" fill="#009B97"></path>
        <path d="M155.958292,511.6485 L156,511.3515 C155.662363,511.4495 155.328699,511.5435 155,511.6305 L155.958292,511.6485" id="Fill-27" fill="#6E878C"></path>
        <path d="M154.509454,513 C138.879574,516.91778 130.583489,514.827426 127,513.178675 L127.092676,514.189715 L127.186897,515.194945 C131.630732,516.933759 140.455073,518.470656 155.769854,514.500581 L155.918136,513.549099 L156,513.026148 L154.509454,513" id="Fill-28" fill="#009B97"></path>
        <path d="M205.999929,526.252181 C206.02334,527.621663 200.223751,528.849311 193.046056,528.987993 C185.865241,529.121947 180.023512,528.119656 180.000102,526.753326 C179.972009,525.37754 185.773159,524.148316 192.949292,524.012786 C200.128547,523.874104 205.973397,524.879547 205.999929,526.252181" id="Fill-29" fill="#008783"></path>
        <path d="M173,464.329188 L173.903899,464.912268 L174.814278,475.045646 L174.835336,475.283894 C178.93042,477.083293 190.081748,480.207164 212.491317,475.598946 C212.985383,475.497063 213.48269,475.395181 213.991335,475.283894 L216,462 L173,464.329188" id="Fill-30" fill="#008783"></path>
        <path d="M176,477.170808 L177.328192,492.803847 C177.398265,492.844516 177.468337,492.885184 177.54478,492.92748 C180.749005,494.685993 190.673819,498.435645 211.609572,493.683917 L211.638238,493.495215 L214,477 C192.503667,481.80053 181.062738,479.248164 176,477.170808" id="Fill-31" fill="#008783"></path>
        <path d="M179,515.731243 L180.009295,527 L206.279183,526.436334 L208,515 C192.462495,519.165037 183.510484,517.553256 179,515.731243" id="Fill-32" fill="#008783"></path>
        <path d="M177,495 L178.429892,511.914402 L178.497218,512.674877 C182.216219,514.539108 190.826025,516.902657 207.046959,512.474493 C207.577558,512.328311 208.116172,512.175559 208.659595,512.014595 L211,495.63236 C191.417539,499.975114 181.251202,497.06133 177,495" id="Fill-33" fill="#008783"></path>
        <path d="M190.824856,526.686988 C190.758585,525.793764 190.687581,524.911847 190.626044,524.007317 C190.465101,521.708842 190.327826,519.357064 190.204752,516.976212 C190.171617,516.323658 190.141637,515.667874 190.114813,515.013705 C189.860776,509.589756 189.712456,503.952595 189.671431,498.090918 C189.669853,497.423827 189.663542,496.759967 189.658808,496.089645 C189.652497,490.899905 189.729813,485.538949 189.904956,480.006779 C189.923891,479.342919 189.949137,478.679058 189.974383,478.008737 C190.146371,473.137197 190.389363,468.139669 190.719139,463 L174,463.957833 L174.880453,464.557084 L175.767217,474.999559 L175.78773,475.24992 L175.88398,476.378968 L175.98023,477.493478 L177.296176,493.020704 C177.365602,493.057855 177.435029,493.101466 177.510767,493.141847 L177.305643,493.140232 L177.39716,494.198209 L177.496566,495.354715 L178.904028,511.98676 L178.970299,512.736228 L179.064971,513.857199 L180.175794,526.929272 L180.311491,526.922811 C180.840078,528.059935 185.267589,528.901471 191,529 C190.936885,528.235995 190.884815,527.455838 190.824856,526.686988" id="Fill-34" fill="#00726F"></path>
        <path d="M212.544266,477.270635 C190.796293,481.229178 179.974185,478.545717 176,477 L176.095896,477.945203 L176.191792,478.875595 C181.189393,480.595003 192.483121,482.707572 213.702879,478.734219 L213.852226,477.867109 L213.949694,477.288139 L214,477 C213.506371,477.095597 213.023746,477.183116 212.544266,477.270635" id="Fill-35" fill="#009B97"></path>
        <path d="M177.20539,493.003198 L177,493 L177.191171,495.192067 C181.381134,497.198663 191.401022,500.03508 210.701394,495.807636 L210.849907,494.776358 L211,493.746678 C190.230297,498.417011 180.384201,494.731589 177.20539,493.003198" id="Fill-36" fill="#009B97"></path>
        <path d="M207.95825,511.648 L208,511.352 C207.663022,511.45 207.329026,511.543 207,511.632 L207.95825,511.648" id="Fill-37" fill="#6E878C"></path>
        <path d="M206.510919,513 C190.880207,516.917826 182.58368,514.826672 179,513.17729 L179.092681,514.187264 L179.185363,515.195785 C183.630979,516.933812 192.454245,518.471297 207.768297,514.498249 L207.919676,513.547856 L208,513.023251 L206.510919,513" id="Fill-38" fill="#009B97"></path>
        <polyline id="Fill-39" fill="#008783" points="297 378.589676 256.63333 312 238 323.411916 278.368254 390 297 378.589676"></polyline>
        <polyline id="Fill-40" fill="#00726F" points="286 384.922974 245.312229 318 237 323.080226 277.689368 390 286 384.922974"></polyline>
        <path d="M255.12889,301.984645 C263.4915,308.222126 265.510337,319.554319 259.638376,327.295862 C253.769625,335.034222 242.234327,336.253388 233.873322,330.012724 C225.509108,323.776834 223.488665,312.444641 229.362231,304.703098 C235.226168,296.964738 246.76949,295.748756 255.12889,301.984645" id="Fill-41" fill="#7ACCC8"></path>
        <path d="M255,302.469432 C254.642378,302.133374 254.272316,301.800594 253.883596,301.485848 C246.535234,295.658111 236.0258,297.307254 230.422013,305.164453 C225.388867,312.221669 226.032587,321.882106 231.532197,328 C246.737368,323.726326 252.687894,311.243003 255,302.469432" id="Fill-42" fill="#91D8D3"></path>
        <polyline id="Fill-43" fill="#008783" points="51.3035431 413 82 336.05478 61.6980434 328 31 404.943638 51.3035431 413"></polyline>
        <polyline id="Fill-44" fill="#00726F" points="52.337703 411 83 333.345671 69.6607124 328 39 405.651136 52.337703 411"></polyline>
        <path d="M89,328.500784 C89,338.716488 81.1648666,347 71.5,347 C61.8335451,347 54,338.716488 54,328.500784 C54,318.281945 61.8335451,310 71.5,310 C81.1648666,310 89,318.281945 89,328.500784" id="Fill-45" fill="#7ACCC8"></path>
        <path d="M84,317.409747 C80.7317955,314.090951 76.0805767,312 70.9028047,312 C61.0169332,312 53,319.579306 53,328.930418 C53,332.709852 54.3228834,336.18429 56.531481,339 C73.3714286,335.187551 80.8081782,324.687202 84,317.409747" id="Fill-46" fill="#91D8D3"></path>
        <polyline id="Fill-47" fill="#008783" points="66 469.091555 49.7429695 411 29 416.906867 45.2601599 475 66 469.091555"></polyline>
        <polyline id="Fill-48" fill="#00726F" points="67 469.680024 50.6156792 411 39 414.313598 55.3843208 473 67 469.680024"></polyline>
        <path d="M55,410.498387 C55,419.613625 48.0595319,427 39.4991884,427 C30.9404681,427 24,419.613625 24,410.498387 C24,401.386375 30.9404681,394 39.4991884,394 C48.0595319,394 55,401.386375 55,410.498387" id="Fill-49" fill="#7ACCC8"></path>
        <path d="M304.309463,375.443803 C311.776289,381.199925 313.208694,392.156798 307.515397,399.922301 C301.820521,407.686184 291.155657,409.311824 283.685672,403.55732 C276.228322,397.79634 274.791179,386.837849 280.479738,379.072346 C286.177773,371.314939 296.848954,369.68768 304.309463,375.443803" id="Fill-50" fill="#7ACCC8"></path>
        <polygon id="Fill-51" fill="#ADE0DD" points="76 317 100.950693 299.235231 226.612182 296 245 311.425349"></polygon>
        <polygon id="Stroke-52" stroke="#ADE0DD" points="76 317 100.950693 299.235231 226.612182 296 245 311.425349"></polygon>
        <path d="M47.0939783,494.878546 C41.7089007,495.50715 37.0541367,493.633846 36.70081,490.689412 L35.0209308,476.619303 C34.6707588,473.677996 38.7560989,470.782037 44.1427539,470.145614 L69.9056341,467.122995 C75.2954438,466.4897 79.9517851,468.364568 80.3003798,471.307438 L81.9786816,485.377547 C82.3320083,488.31729 78.2514003,491.216377 72.8584359,491.851236 L47.0939783,494.878546" id="Fill-53" fill="#7ACCC8"></path>
        <path d="M46.2286849,484.785205 C40.7523589,485.414853 36.1470478,484.612635 35.9481419,483.000427 L35.0065475,475.281416 C34.8092458,473.667653 39.0953451,471.850226 44.5732753,471.220578 L70.7726992,468.215372 C76.2538375,467.585725 80.8575445,468.383278 81.0532422,470.000151 L81.9932325,477.712943 C82.1937424,479.329815 77.9140594,481.147242 72.4281089,481.778444 L46.2286849,484.785205" id="Fill-54" fill="#91D8D3"></path>
        <path d="M79.8003145,504.308296 C79.760278,506.915127 78.7793831,509.01299 77.6133192,508.999939 L72.0382328,508.91348 C70.8721689,508.893904 69.9596698,506.766678 70.0013745,504.154953 L70.1998889,491.690126 C70.2432618,489.081664 71.2224886,486.98217 72.3868842,487.000114 L77.9619706,487.084942 C79.1280345,487.104518 80.0371973,489.231744 79.998829,491.840206 L79.8003145,504.308296" id="Fill-55" fill="#009B97"></path>
        <path d="M74.7938954,503.290603 C74.752441,505.902566 74.0615354,508.008144 73.2531759,507.999976 L69.387559,507.944437 C68.5774722,507.929736 67.9573844,505.802922 68.0022932,503.189327 L68.2043831,490.707773 C68.2510193,488.095811 68.9401976,485.990233 69.7485572,486.000034 L73.614174,486.057206 C74.4208063,486.068641 75.0426214,488.195455 74.9977125,490.807417 L74.7938954,503.290603" id="Fill-56" fill="#008783"></path>
        <path d="M57.7474611,504.8504 C58.3056771,507.314859 57.9078326,509.517648 56.8561659,509.774561 L51.8399318,510.976659 C50.7867232,511.227228 49.482163,509.43201 48.9254891,506.958036 L46.2546875,495.154323 C45.6933874,492.68352 46.091232,490.474388 47.1398146,490.228576 L52.1591327,489.023307 C53.2107994,488.772737 54.5138174,490.571127 55.0751175,493.041929 L57.7474611,504.8504" id="Fill-57" fill="#009B97"></path>
        <path d="M58.6033772,505.40088 C59.1791946,507.924062 59.121931,510.099779 58.4713527,510.255651 L55.3727553,510.991173 C54.722177,511.147046 53.7296078,509.21975 53.1537904,506.691697 L50.3955933,494.606726 C49.8213665,492.078672 49.8786302,489.901332 50.5260271,489.747083 L53.6278059,489.008313 C54.2767934,488.857312 55.2693626,490.78136 55.8483613,493.311037 L58.6033772,505.40088" id="Fill-58" fill="#008783"></path>
        <path d="M247,310 L160.540404,313.919555 L74,315.1045 L103.840262,464.861438 C103.840262,464.861438 107.585941,464.890106 113.20446,464.931515 C116.015304,464.956998 119.293566,464.982481 122.804744,465 C153.904657,464.835955 185.110729,464.835955 216.600421,461.88315 C222.207849,461.50728 225.948775,461.260417 225.948775,461.260417 L247,310" id="Fill-59" fill="#009B97"></path>
        <path d="M238,319 L161.538114,322.466678 L85,323.514818 L111.389332,455.870777 C111.389332,455.870777 114.703681,455.901089 119.67441,455.937782 C122.159775,455.960116 125.056455,455.982451 128.164352,456 C155.670113,455.853229 183.266395,455.853229 211.115183,453.243249 C216.077972,452.909822 219.382793,452.68807 219.382793,452.68807 L238,319" id="Fill-60" fill="#7ACCC8"></path>
        <polyline id="Fill-61" fill="#7ACCC8" points="144.481113 302 130 297.294677 142.405567 297 146 299.574688 144.481113 302"></polyline>
        <path d="M141.5685,269.538 C141.5195,269.512 141.4765,269.488 141.4315,269.462 L141.4385,269.536 L141.5685,269.538" id="Fill-62" fill="#6E878C"></path>
        <path d="M170.999929,302.250355 C171.023339,303.622189 165.222534,304.850533 158.046828,304.987717 C150.866441,305.123323 145.026621,304.120465 145.000091,302.753361 C144.97356,301.375219 150.772804,300.143721 157.951631,300.012845 C165.127337,299.874085 170.971838,300.875366 170.999929,302.250355" id="Fill-63" fill="#008783"></path>
        <path d="M137,240.329412 L137.902313,240.909414 L138.812726,251.043767 L138.835405,251.285173 C142.929024,253.081611 154.077532,256.20735 176.487945,251.600255 C176.98365,251.496796 177.484215,251.394903 177.98964,251.285173 L180,238 L137,240.329412" id="Fill-64" fill="#008783"></path>
        <path d="M140,253.167575 L141.326655,268.804151 C141.398324,268.846452 141.466806,268.885498 141.544845,268.927799 C144.747611,270.6849 154.672842,274.43501 175.609472,269.685956 L175.636547,269.495603 L178,253 C156.505951,257.79949 145.061358,255.245185 140,253.167575" id="Fill-65" fill="#008783"></path>
        <path d="M143,291.728196 L144.007619,303 L170.277802,302.43481 L172,291 C156.46104,295.163514 147.50843,293.550209 143,291.728196" id="Fill-66" fill="#008783"></path>
        <path d="M142,272 L143.434498,288.914791 L143.500212,289.673715 C147.218687,291.539812 155.825673,293.903645 172.045915,289.471664 C172.578042,289.332035 173.114977,289.175979 173.661528,289.016638 L176,272.632436 C156.418706,276.972426 146.253807,274.061577 142,272" id="Fill-67" fill="#008783"></path>
        <path d="M154.826402,302.685486 C154.760119,301.793921 154.689101,300.910432 154.627553,300.009177 C154.468158,297.707584 154.327701,295.357536 154.207761,292.97357 C154.176198,292.324279 154.146212,291.665296 154.113071,291.01439 C153.863721,285.58909 153.715373,279.953821 153.675919,274.090816 C153.671185,273.425373 153.664872,272.75993 153.661716,272.089641 C153.650668,266.901769 153.731155,261.539461 153.907909,256.007562 C153.926847,255.343734 153.95052,254.679906 153.975771,254.011233 C154.146212,249.138316 154.392406,244.142647 154.720665,239 L138,239.959401 L138.879038,240.560238 L139.765967,251.000587 L139.788062,251.249321 L139.88433,252.379928 L139.980598,253.494384 L141.29521,269.02085 C141.366227,269.057999 141.434088,269.099993 141.511418,269.143602 L141.306257,269.141987 L141.394634,270.199912 L142.904939,287.985978 L142.969644,288.735409 L143.064333,289.85794 L143.159023,290.974011 L144.173784,302.927759 L144.309506,302.924528 C144.841348,304.059981 149.266524,304.898245 155,305 C154.938452,304.236033 154.884794,303.454299 154.826402,302.685486" id="Fill-68" fill="#00726F"></path>
        <path d="M176.542573,253.270743 C154.792801,257.229522 143.972942,254.543641 140,253 L140.095904,253.945581 L140.191808,254.873651 C145.18825,256.593746 156.486057,258.708507 177.704427,254.734912 L177.852213,253.867456 L177.952834,253.286907 L178,253 C177.509475,253.094289 177.023666,253.181842 176.542573,253.270743" id="Fill-69" fill="#009B97"></path>
        <path d="M142.2054,269.003198 L142,269 L142.08848,270.053621 L142.18644,271.193579 C146.379757,273.200096 156.400112,276.033203 175.70296,271.809124 L175.8499,270.777886 L176,269.748247 C155.229332,274.415199 145.382778,270.729922 142.2054,269.003198" id="Fill-70" fill="#009B97"></path>
        <path d="M171.956349,287.6485 L172,287.3515 C171.661706,287.4485 171.329365,287.5435 171,287.6285 L171.956349,287.6485" id="Fill-71" fill="#6E878C"></path>
        <path d="M170.510919,289 C154.878662,292.918303 146.58368,290.828444 143,289.178633 L143.092681,290.190885 L143.185363,291.195876 C147.629434,292.932826 156.454245,294.47081 171.771386,290.501677 L171.918131,289.550421 L172,289.029046 L170.510919,289" id="Fill-72" fill="#009B97"></path>
        <polyline id="Fill-73" fill="#91D8D3" points="153 34 171.571878 0 179 7.5564444 153 34"></polyline>
        <polyline id="Fill-74" fill="#91D8D3" points="111 39 74 26.9357932 79.9576271 18 111 39"></polyline>
        <polyline id="Fill-75" fill="#91D8D3" points="156 60 189 70.9224026 183.681118 79 156 60"></polyline>
        <path d="M290.913371,162.073693 C291.514817,165.875285 288.920684,169.441059 285.114163,170.044059 L266.92991,172.913454 C263.124971,173.514872 259.555862,170.917697 258.955998,167.116105 L256.086467,148.929552 C255.48502,145.124794 258.085484,141.554273 261.887258,140.954438 L280.07151,138.086625 C283.874867,137.485208 287.447141,140.079217 288.047004,143.885557 L290.913371,162.073693" id="Fill-76" fill="#91D8D3"></path>
        <path d="M275.902253,221.405442 C282.56736,144.16388 256.703689,95 256.703689,95 L27,142.163804 C27,142.163804 41.4434522,225.502964 60.1013008,263 L275.902253,221.405442" id="Fill-77" fill="#009B97"></path>
        <path d="M262.016379,218.612392 C267.98847,149.186957 244.814404,105 244.814404,105 L39,147.391416 C39,147.391416 51.9432416,222.294772 68.6568227,256 L262.016379,218.612392" id="Fill-78" fill="#7ACCC8"></path>
        <polygon id="Fill-79" fill="#ADE0DD" points="254 95.0864283 241.675753 86 14 132.908746 26.3274274 142"></polygon>
        <polygon id="Stroke-80" stroke="#ADE0DD" points="254 95.0864283 241.675753 86 14 132.908746 26.3274274 142"></polygon>
        <path d="M26.2223992,144.000355 C32.0883226,186.002482 58,260 58,260 L44.3123145,248.501507 C29.6419315,225.003545 14,134 14,134 L26.2223992,144.000355 Z" id="Fill-81" fill="#00726F"></path>
        <path d="M26.2223992,144.000355 C32.0883226,186.002482 58,260 58,260 L44.3123145,248.501507 C29.6419315,225.003545 14,134 14,134 L26.2223992,144.000355 Z" id="Stroke-82" stroke="#00726F"></path>
        <path d="M137.279491,112.913159 C135.142993,113.299781 133.237684,112.359001 133.028818,110.815735 L132.019562,103.424812 C131.805912,101.879935 133.366831,100.314116 135.503328,99.9307163 L145.723438,98.0862074 C147.858341,97.7011963 149.763651,98.6419764 149.972517,100.186853 L150.980179,107.574555 C151.195423,109.119432 149.63291,110.68364 147.496412,111.070261 L137.279491,112.913159" id="Fill-83" fill="#009B97"></path>
        <path d="M142.25636,112.550945 C137.843944,113.341413 134.147585,113.060426 134.004374,111.927216 C133.859655,110.79555 137.323861,109.234685 141.740799,108.44576 C146.154722,107.661468 149.851081,107.937823 149.9958,109.072577 C150.137504,110.204243 146.676313,111.762021 142.25636,112.550945" id="Fill-84" fill="#009B97"></path>
        <path d="M290.440355,153.16564 C291.835611,161.989349 290.531954,169.517495 287.530436,169.977315 C284.527281,170.443589 280.959809,163.665676 279.559645,154.83874 C278.164389,146.016644 279.468046,138.485272 282.469564,138.022225 C285.472719,137.560791 289.043463,144.340317 290.440355,153.16564" id="Fill-85" fill="#91D8D3"></path>
        <polyline id="Fill-86" fill="#91D8D3" points="117 68 96.8436326 95 91 87.8060996 117 68"></polyline>
        <path d="M36.8173517,206.288896 C37.6880996,210.026404 35.3618911,213.774975 31.6197297,214.645743 L13.7132974,218.816265 C9.96797529,219.690194 6.22581382,217.362351 5.35664624,213.621682 L1.18306159,195.714829 C0.310733411,191.967839 2.6401025,188.22559 6.38068367,187.353241 L24.2855357,183.184299 C28.0308577,182.30879 31.7714389,184.636633 32.6453474,188.383624 L36.8173517,206.288896" id="Fill-87" fill="#91D8D3"></path>
        <path d="M244,106 L40,147.629017 C40,147.629017 52.8892318,221.546 69.5565065,255 C204.69945,195.610525 236.806454,128.472513 244,106" id="Fill-88" fill="#91D8D3"></path>
        <path d="M133.640876,196.481244 C136.138832,212.303119 125.33978,227.146158 109.519392,229.64092 C93.7005928,232.13886 78.8542805,221.338289 76.3595025,205.518003 C73.8599575,189.699306 84.6605981,174.856267 100.479397,172.358327 C116.299785,169.863566 131.146098,180.660958 133.640876,196.481244" id="Fill-89" fill="#FFFFFF"></path>
        <path d="M126.74599,193.72636 C128.512749,205.183557 120.874719,215.931059 109.695263,217.739322 C98.5126425,219.550826 88.0180619,211.72798 86.2528846,200.274024 C84.4908706,188.815207 92.1241555,178.067706 103.305194,176.259442 C114.486232,174.452799 124.983976,182.274025 126.74599,193.72636 Z" id="Fill-90" fill="#00726F"></path>
        <path d="M126.74599,193.72636 C128.512749,205.183557 120.874719,215.931059 109.695263,217.739322 C98.5126425,219.550826 88.0180619,211.72798 86.2528846,200.274024 C84.4908706,188.815207 92.1241555,178.067706 103.305194,176.259442 C114.486232,174.452799 124.983976,182.274025 126.74599,193.72636 Z" id="Stroke-91" stroke="#00726F"></path>
        <path d="M121.83267,191.396313 C122.996458,198.760407 117.965485,205.668193 110.60378,206.833437 C103.240495,207.993945 96.3288299,202.966656 95.1666216,195.604141 C94.0059924,188.240047 99.0322275,181.332261 106.395512,180.167017 C113.758797,179.00493 120.672041,184.03064 121.83267,191.396313" id="Fill-92" fill="#008783"></path>
        <path d="M107.938006,191.218217 C108.369069,193.949012 106.506259,196.504321 103.778244,196.938416 C101.051768,197.367893 98.4900193,195.505288 98.0620349,192.779111 C97.6309714,190.052934 99.4922417,187.489928 102.220257,187.06199 C104.946733,186.630974 107.508482,188.493579 107.938006,191.218217" id="Fill-93" fill="#FFFFFF"></path>
        <path d="M115.969455,193.108774 C116.183204,194.473501 115.252449,195.754369 113.887431,195.969425 C112.525118,196.183129 111.246682,195.253924 111.03158,193.89055 C110.813773,192.525823 111.745881,191.244955 113.109546,191.031252 C114.473211,190.814843 115.753,191.7454 115.969455,193.108774" id="Fill-94" fill="#FFFFFF"></path>
        <path d="M249.672398,171.793719 C251.953026,186.523284 242.083359,200.343125 227.627373,202.665318 C213.174521,204.992298 199.609797,194.937443 197.327603,180.206281 C195.046975,165.479908 204.916643,151.656875 219.371062,149.334682 C233.825481,147.007702 247.390204,157.062557 249.672398,171.793719" id="Fill-95" fill="#FFFFFF"></path>
        <path d="M241.765128,170.03716 C243.400263,180.401238 236.323637,190.128037 225.962506,191.766301 C215.599795,193.396659 205.869631,186.323342 204.234495,175.957683 C202.600941,165.595187 209.675986,155.869969 220.040279,154.234867 C230.401409,152.599766 240.129992,159.676245 241.765128,170.03716 Z" id="Fill-96" fill="#00726F"></path>
        <path d="M241.765128,170.03716 C243.400263,180.401238 236.323637,190.128037 225.962506,191.766301 C215.599795,193.396659 205.869631,186.323342 204.234495,175.957683 C202.600941,165.595187 209.675986,155.869969 220.040279,154.234867 C230.401409,152.599766 240.129992,159.676245 241.765128,170.03716 Z" id="Stroke-97" stroke="#00726F"></path>
        <polygon id="Fill-98" fill="#00726F" points="66 155 91.9953563 142 92 153.630978"></polygon>
        <polygon id="Stroke-99" stroke="#00726F" points="66 155 91.9953563 142 92 153.630978"></polygon>
        <polygon id="Fill-100" fill="#00726F" points="241 122.818075 213 118 216.271281 129"></polygon>
        <polygon id="Stroke-101" stroke="#00726F" points="241 122.818075 213 118 216.271281 129"></polygon>
        <path d="M234.833015,169.395636 C235.995152,176.76058 230.967646,183.670742 223.604814,184.832963 C216.240402,185.995184 209.329161,180.968894 208.167024,173.60395 C207.004887,166.240585 212.030814,159.327265 219.396804,158.166623 C226.759637,157.005982 233.674036,162.032271 234.833015,169.395636" id="Fill-102" fill="#008783"></path>
        <path d="M220.937651,168.221471 C221.370191,170.950108 219.506113,173.506378 216.776956,173.938835 C214.050877,174.366676 211.49412,172.504492 211.06158,169.777394 C210.632119,167.050296 212.494657,164.492487 215.222275,164.061569 C217.948354,163.632189 220.50819,165.494372 220.937651,168.221471" id="Fill-103" fill="#FFFFFF"></path>
        <path d="M229.969143,171.110327 C230.18419,172.474245 229.25232,173.752919 227.887651,173.969414 C226.525686,174.183203 225.246224,173.253627 225.031177,171.888356 C224.814778,170.527143 225.748001,169.24441 227.11267,169.030621 C228.473282,168.816832 229.754096,169.745055 229.969143,171.110327" id="Fill-104" fill="#FFFFFF"></path>
        <path d="M73,253.499151 C73,255.983959 70.9843396,258 68.5,258 C66.0139623,258 64,255.983959 64,253.499151 C64,251.014342 66.0139623,249 68.5,249 C70.9843396,249 73,251.014342 73,253.499151 Z" id="Fill-105" fill="#00726F"></path>
        <path d="M73,253.499151 C73,255.983959 70.9843396,258 68.5,258 C66.0139623,258 64,255.983959 64,253.499151 C64,251.014342 66.0139623,249 68.5,249 C70.9843396,249 73,251.014342 73,253.499151 Z" id="Stroke-106" stroke="#00726F"></path>
        <path d="M72,251.497966 C72,252.881204 70.8792402,254 69.4979647,254 C68.119403,254 67,252.881204 67,251.497966 C67,250.11744 68.119403,249 69.4979647,249 C70.8792402,249 72,250.11744 72,251.497966" id="Fill-107" fill="#7ACCC8"></path>
        <path d="M265,217.5 C265,219.983579 262.983022,222 260.502547,222 C258.013582,222 256,219.983579 256,217.5 C256,215.013024 258.013582,213 260.502547,213 C262.983022,213 265,215.013024 265,217.5 Z" id="Fill-108" fill="#00726F"></path>
        <path d="M265,217.5 C265,219.983579 262.983022,222 260.502547,222 C258.013582,222 256,219.983579 256,217.5 C256,215.013024 258.013582,213 260.502547,213 C262.983022,213 265,215.013024 265,217.5 Z" id="Stroke-109" stroke="#00726F"></path>
        <path d="M265,216.5 C265,217.880901 263.879848,219 262.499322,219 C261.118796,219 260,217.880901 260,216.5 C260,215.119099 261.118796,214 262.499322,214 C263.879848,214 265,215.119099 265,216.5" id="Fill-110" fill="#7ACCC8"></path>
        <path d="M249,105.5 C249,107.983579 246.983959,110 244.500849,110 C242.014342,110 240,107.983579 240,105.5 C240,103.014723 242.014342,101 244.500849,101 C246.983959,101 249,103.014723 249,105.5 Z" id="Fill-111" fill="#00726F"></path>
        <path d="M249,105.5 C249,107.983579 246.983959,110 244.500849,110 C242.014342,110 240,107.983579 240,105.5 C240,103.014723 242.014342,101 244.500849,101 C246.983959,101 249,103.014723 249,105.5 Z" id="Stroke-112" stroke="#00726F"></path>
        <path d="M247,105.5 C247,106.882257 245.880901,108 244.498644,108 C243.117743,108 242,106.882257 242,105.5 C242,104.119099 243.117743,103 244.498644,103 C245.880901,103 247,104.119099 247,105.5" id="Fill-113" fill="#7ACCC8"></path>
        <path d="M44,147.499151 C44,149.982261 41.9843396,152 39.5,152 C37.0139623,152 35,149.982261 35,147.499151 C35,145.012644 37.0139623,143 39.5,143 C41.9843396,143 44,145.012644 44,147.499151 Z" id="Fill-114" fill="#00726F"></path>
        <path d="M44,147.499151 C44,149.982261 41.9843396,152 39.5,152 C37.0139623,152 35,149.982261 35,147.499151 C35,145.012644 37.0139623,143 39.5,143 C41.9843396,143 44,145.012644 44,147.499151 Z" id="Stroke-115" stroke="#00726F"></path>
        <path d="M42,145.499322 C42,146.881204 40.880597,148 39.4979647,148 C38.119403,148 37,146.881204 37,145.499322 C37,144.118796 38.119403,143 39.4979647,143 C40.880597,143 42,144.118796 42,145.499322" id="Fill-116" fill="#7ACCC8"></path>
        <path d="M11.8857428,202.788805 C13.8941804,211.597699 13.1131213,219.28365 10.1414869,219.952846 C7.16492989,220.625305 3.12344148,214.026388 1.113363,205.212597 C-0.893433723,196.405336 -0.114015536,188.719384 2.86090062,188.046925 C5.83417589,187.376097 9.8756643,193.976647 11.8857428,202.788805" id="Fill-117" fill="#91D8D3"></path>
        <polyline id="Fill-118" fill="#00726F" points="13 132 28.4498905 141.73163 38 189 13 132"></polyline>
        <path d="M139.12955,101 L135.727031,101.40569 C133.542818,101.664278 131.874726,103.08729 132.007396,104.579981 L132.638391,111.724457 C132.767826,113.218697 134.649486,114.218985 136.835317,113.958848 L140,113.582579 C138.560037,109.530326 138.818907,104.059707 139.12955,101" id="Fill-119" fill="#008783"></path>
        <path d="M140.763031,103.527478 C136.073087,104.33331 132.148911,104.083487 132.004368,102.968422 C131.855213,101.847264 135.544123,100.285869 140.234067,99.47699 C144.925549,98.6650645 148.848187,98.9148878 148.995805,100.034522 C149.141885,101.154157 145.454513,102.714029 140.763031,103.527478" id="Fill-120" fill="#ADE0DD"></path>
        <path d="M140.919415,101 C140.932402,100.772885 142.237683,77.8946001 133.834536,57 L132,57.7083454 C140.244046,78.2074791 138.963118,100.660121 138.95013,100.88406 L140.919415,101" id="Fill-121" fill="#008783"></path>
        <path d="M141,57.0016454 C141,59.2097902 138.315451,61 135,61 C131.686159,61 129,59.2097902 129,57.0016454 C129,54.7902098 131.686159,53 135,53 C138.315451,53 141,54.7902098 141,57.0016454" id="Fill-122" fill="#008783"></path>
        <path d="M140,56.5015328 C140,57.8825874 138.211915,59 136.001599,59 C133.791283,59 132,57.8825874 132,56.5015328 C132,55.1189454 133.791283,54 136.001599,54 C138.211915,54 140,55.1189454 140,56.5015328" id="Fill-123" fill="#ADE0DD"></path>
        <path d="M238,319 L163.109406,322.426402 L87,323.477721 L113.155719,456 C149.186525,432.044031 219.674703,342.640253 238,319" id="Fill-124" fill="#91D8D3"></path>
        <path d="M50,400.213069 C47.2576958,397.014466 43.3580889,395 39.015059,395 C30.723677,395 24,402.299252 24,411.303788 C24,414.942258 25.11013,418.289077 26.9640157,421 C41.0859389,417.328062 47.3237375,407.217482 50,400.213069" id="Fill-125" fill="#91D8D3"></path>
        <path d="M305,375.469054 C304.643886,375.128051 304.273777,374.793606 303.883452,374.487032 C296.532583,368.658835 286.028009,370.306469 280.418831,378.15937 C275.389699,385.222062 276.033502,394.879983 281.530715,401 C296.734743,396.725989 302.689149,384.241679 305,375.469054" id="Fill-126" fill="#91D8D3"></path>
        <path d="M6.84335495,213.579354 C7.61694708,217.34995 10.9485092,219.695427 14.2800713,218.814878 L30.2138988,214.611172 C33.5423603,213.7354 35.6135408,209.963211 34.8368481,206.192615 L34.3857152,204 C26.7505625,206.342292 17.3434341,208.390006 6,209.482333 L6.84335495,213.579354" id="Fill-127" fill="#7ACCC8"></path>
        <path d="M9.2301375,204.627679 C10.6182581,210.961688 10.0784334,216.487895 8.01986005,216.965749 C5.9612867,217.451731 3.16301193,212.708945 1.7717437,206.371685 C0.380475476,200.042553 0.921873971,194.51472 2.98044732,194.033615 C5.0405945,193.55251 7.83729544,198.292046 9.2301375,204.627679" id="Fill-128" fill="#7ACCC8"></path>
        <path d="M90,324.497452 C90,326.982261 87.9847199,329 85.5008489,329 C83.0152801,329 81,326.982261 81,324.497452 C81,322.014342 83.0152801,320 85.5008489,320 C87.9847199,320 90,322.014342 90,324.497452 Z" id="Fill-129" fill="#00726F"></path>
        <path d="M90,324.497452 C90,326.982261 87.9847199,329 85.5008489,329 C83.0152801,329 81,326.982261 81,324.497452 C81,322.014342 83.0152801,320 85.5008489,320 C87.9847199,320 90,322.014342 90,324.497452 Z" id="Stroke-130" stroke="#00726F"></path>
        <path d="M88,323.5 C88,324.882863 86.8789359,326 85.4972856,326 C84.1183496,326 83,324.882863 83,323.5 C83,322.119848 84.1183496,321 85.4972856,321 C86.8789359,321 88,322.119848 88,323.5" id="Fill-131" fill="#7ACCC8"></path>
        <path d="M241,320.496602 C241,322.98188 238.986038,325 236.501698,325 C234.017358,325 232,322.98188 232,320.496602 C232,318.013024 234.017358,316 236.501698,316 C238.986038,316 241,318.013024 241,320.496602 Z" id="Fill-132" fill="#00726F"></path>
        <path d="M241,320.496602 C241,322.98188 238.986038,325 236.501698,325 C234.017358,325 232,322.98188 232,320.496602 C232,318.013024 234.017358,316 236.501698,316 C238.986038,316 241,318.013024 241,320.496602 Z" id="Stroke-133" stroke="#00726F"></path>
        <path d="M240,318.5 C240,319.882257 238.878936,321 237.498643,321 C236.11835,321 235,319.882257 235,318.5 C235,317.119099 236.11835,316 237.498643,316 C238.878936,316 240,317.119099 240,318.5" id="Fill-134" fill="#7ACCC8"></path>
        <path d="M223,452.5 C223,454.984517 220.987736,457 218.5,457 C216.01566,457 214,454.984517 214,452.5 C214,450.013784 216.01566,448 218.5,448 C220.987736,448 223,450.013784 223,452.5 Z" id="Fill-135" fill="#00726F"></path>
        <path d="M223,452.5 C223,454.984517 220.987736,457 218.5,457 C216.01566,457 214,454.984517 214,452.5 C214,450.013784 216.01566,448 218.5,448 C220.987736,448 223,450.013784 223,452.5 Z" id="Stroke-136" stroke="#00726F"></path>
        <path d="M221,450.5 C221,451.879544 219.880597,453 218.496608,453 C217.118046,453 216,451.879544 216,450.5 C216,449.117743 217.118046,448 218.496608,448 C219.880597,448 221,449.117743 221,450.5" id="Fill-137" fill="#7ACCC8"></path>
        <path d="M116,456.498301 C116,458.983579 113.98472,461 111.500849,461 C109.01528,461 107,458.983579 107,456.498301 C107,454.016421 109.01528,452 111.500849,452 C113.98472,452 116,454.016421 116,456.498301 Z" id="Fill-138" fill="#00726F"></path>
        <path d="M116,456.498301 C116,458.983579 113.98472,461 111.500849,461 C109.01528,461 107,458.983579 107,456.498301 C107,454.016421 109.01528,452 111.500849,452 C113.98472,452 116,454.016421 116,456.498301 Z" id="Stroke-139" stroke="#00726F"></path>
        <path d="M114,455.498643 C114,456.88165 112.87924,458 111.497965,458 C110.119403,458 109,456.88165 109,455.498643 C109,454.11835 110.119403,453 111.497965,453 C112.87924,453 114,454.11835 114,455.498643" id="Fill-140" fill="#7ACCC8"></path>
      </g>
    </g>
  </g>
</svg>