<?xml version="1.0" encoding="UTF-8"?>
<svg version="1.1" xmlns="http://www.w3.org/2000/svg" width="48" height="48">
<path d="M0 0 C5.82485779 3.51996782 10.54466582 8.98962934 12.5625 15.5 C13.36764105 23.33608208 13.68710392 31.11922577 8.5625 37.5 C3.75801361 42.54521222 -0.59927055 46.10562995 -7.70703125 46.8359375 C-16.22326573 46.92983204 -22.11345494 46.6177288 -28.40234375 40.62890625 C-34.7841668 33.72505269 -35.91792252 28.29832071 -35.7421875 18.9453125 C-35.04689797 11.08319245 -31.38995981 6.95041296 -25.53515625 1.9453125 C-18.47077988 -2.92213491 -7.84396301 -3.47595223 0 0 Z " fill="#010101" transform="translate(35.4375,1.5)"/>
<path d="M0 0 C1.93359375 -0.01933594 1.93359375 -0.01933594 3.90625 -0.0390625 C7.5 0.625 7.5 0.625 10.44921875 2.58203125 C13.28403318 6.7883559 13.06614563 9.99336131 12.8125 14.9375 C12.78994141 15.77345703 12.76738281 16.60941406 12.74414062 17.47070312 C12.6855061 19.52291149 12.59583215 21.57419202 12.5 23.625 C11.51 23.955 10.52 24.285 9.5 24.625 C8.83820153 26.60545559 8.83820153 26.60545559 8.5 28.625 C6.34267167 30.78232833 1.55201247 29.81020919 -1.4375 29.8125 C-2.27474609 29.82474609 -3.11199219 29.83699219 -3.97460938 29.84960938 C-5.17633789 29.85250977 -5.17633789 29.85250977 -6.40234375 29.85546875 C-7.13960693 29.85957764 -7.87687012 29.86368652 -8.63647461 29.86791992 C-10.5 29.625 -10.5 29.625 -12.5 27.625 C-13.00642637 24.04289089 -12.91674407 20.42633825 -12.9375 16.8125 C-12.97037109 15.81412109 -13.00324219 14.81574219 -13.03710938 13.78710938 C-13.07123748 9.13017385 -13.02636938 6.43303193 -10.44140625 2.46484375 C-6.7340728 0.14591406 -4.35592801 -0.04355928 0 0 Z " fill="#060606" transform="translate(24.5,8.375)"/>
<path d="M0 0 C1.93359375 -0.01933594 1.93359375 -0.01933594 3.90625 -0.0390625 C7.5 0.625 7.5 0.625 10.44921875 2.58203125 C13.28403318 6.7883559 13.06614563 9.99336131 12.8125 14.9375 C12.78994141 15.77345703 12.76738281 16.60941406 12.74414062 17.47070312 C12.6855061 19.52291149 12.59583215 21.57419202 12.5 23.625 C11.51 23.955 10.52 24.285 9.5 24.625 C8.83820153 26.60545559 8.83820153 26.60545559 8.5 28.625 C6.34267167 30.78232833 1.55201247 29.81020919 -1.4375 29.8125 C-2.27474609 29.82474609 -3.11199219 29.83699219 -3.97460938 29.84960938 C-5.17633789 29.85250977 -5.17633789 29.85250977 -6.40234375 29.85546875 C-7.13960693 29.85957764 -7.87687012 29.86368652 -8.63647461 29.86791992 C-10.5 29.625 -10.5 29.625 -12.5 27.625 C-13.00642637 24.04289089 -12.91674407 20.42633825 -12.9375 16.8125 C-12.97037109 15.81412109 -13.00324219 14.81574219 -13.03710938 13.78710938 C-13.07123748 9.13017385 -13.02636938 6.43303193 -10.44140625 2.46484375 C-6.7340728 0.14591406 -4.35592801 -0.04355928 0 0 Z M-6.5 1.625 C-6.5 8.555 -6.5 15.485 -6.5 22.625 C-0.56 22.625 5.38 22.625 11.5 22.625 C11.5 17.675 11.5 12.725 11.5 7.625 C9.52 7.625 7.54 7.625 5.5 7.625 C5.5 5.645 5.5 3.665 5.5 1.625 C1.54 1.625 -2.42 1.625 -6.5 1.625 Z " fill="#CFCFCF" transform="translate(24.5,8.375)"/>
<path d="M0 0 C0.33 0 0.66 0 1 0 C1.33 6.27 1.66 12.54 2 19 C6.95 19 11.9 19 17 19 C17 19.99 17 20.98 17 22 C11.06 22 5.12 22 -1 22 C-1.02683201 18.52078265 -1.0467567 15.04176961 -1.0625 11.5625 C-1.07087891 10.56927734 -1.07925781 9.57605469 -1.08789062 8.55273438 C-1.09111328 7.60849609 -1.09433594 6.66425781 -1.09765625 5.69140625 C-1.10289307 4.81685791 -1.10812988 3.94230957 -1.11352539 3.04125977 C-1 1 -1 1 0 0 Z " fill="#101010" transform="translate(15,14)"/>
</svg>
