<svg width="12px" height="15px" viewBox="0 0 12 15" version="1.1" xmlns="http://www.w3.org/2000/svg" xmlns:xlink="http://www.w3.org/1999/xlink">
  <g stroke="none" stroke-width="1" fill="none" fill-rule="evenodd">
    <g transform="translate(-57.000000, -304.000000)" fill="#D0021B">
      <g id="rubbish-bin" transform="translate(57.000000, 304.000000)">
        <path d="M1.5263077,13.7987751 C1.54401131,14.1906979 1.89193891,14.5 2.31505881,14.5 L9.68494119,14.5 C10.1080611,14.5 10.4559887,14.1906979 10.4736923,13.7987751 L11,3.5 L1,3.5 L1.5263077,13.7987751 Z M7.6671531,6.0580344 C7.6671531,5.89393233 7.81070204,5.76083523 7.98781485,5.76083523 L8.50068165,5.76083523 C8.67767925,5.76083523 8.8213434,5.89389674 8.8213434,6.0580344 L8.8213434,11.9419656 C8.8213434,12.1061033 8.67779446,12.2391648 8.50068165,12.2391648 L7.98781485,12.2391648 C7.81077884,12.2391648 7.6671531,12.1061745 7.6671531,11.9419656 L7.6671531,6.0580344 Z M5.42294325,6.0580344 C5.42294325,5.89393233 5.56649219,5.76083523 5.7435666,5.76083523 L6.2564334,5.76083523 C6.433431,5.76083523 6.57705675,5.89389674 6.57705675,6.0580344 L6.57705675,11.9419656 C6.57705675,12.1061033 6.43354621,12.2391648 6.2564334,12.2391648 L5.7435666,12.2391648 C5.56653059,12.2391648 5.42294325,12.1061745 5.42294325,11.9419656 L5.42294325,6.0580344 L5.42294325,6.0580344 Z M3.1786566,6.0580344 C3.1786566,5.89393233 3.32220554,5.76083523 3.49927995,5.76083523 L4.01218515,5.76083523 C4.18922116,5.76083523 4.3328085,5.89389674 4.3328085,6.0580344 L4.3328085,11.9419656 C4.3328085,12.1061033 4.18925956,12.2391648 4.01218515,12.2391648 L3.49927995,12.2391648 C3.32224394,12.2391648 3.1786566,12.1061745 3.1786566,11.9419656 L3.1786566,6.0580344 Z" id="Shape" fill-rule="nonzero"></path>
        <path d="M11.4915438,1.06514032 L8.00191821,1.06514032 L8.00191821,0.615617027 C8.00191821,0.55177924 7.9259651,0.5 7.83223573,0.5 L4.16776427,0.5 C4.07407432,0.5 3.99812121,0.55177924 3.99812121,0.615617027 L3.99812121,1.06511347 L0.508456205,1.06511347 C0.227622836,1.06511347 0,1.22023634 0,1.41158856 L0,2.5 L12,2.5 L12,1.41161542 C12,1.22026319 11.7723772,1.06514032 11.4915438,1.06514032 Z" id="Path"></path>
      </g>
    </g>
  </g>
</svg>